<?xml version="1.0" standalone="no"?>
<!DOCTYPE svg PUBLIC "-//W3C//DTD SVG 20010904//EN"
 "http://www.w3.org/TR/2001/REC-SVG-20010904/DTD/svg10.dtd">
<svg version="1.0" xmlns="http://www.w3.org/2000/svg"
 width="200.000000pt" height="200.000000pt" viewBox="0 0 200.000000 200.000000"
 preserveAspectRatio="xMidYMid meet">
 <defs><style>.cls-2{fill:#142954;}</style></defs>

<g transform="translate(0.000000,200.000000) scale(0.100000,-0.100000)"
fill="#4854ef" stroke="none">
<path class="cls-1" d="M297 1244 c-4 -4 -4 -32 -1 -63 5 -51 3 -60 -25 -101 -17 -25 -31
-49 -31 -54 0 -4 28 -5 63 -2 l63 7 14 -41 c12 -37 36 -69 44 -59 1 2 13 25
25 51 18 37 32 51 69 69 26 13 50 27 54 32 20 30 -43 61 -114 56 -37 -3 -43
-1 -53 24 -23 56 -86 103 -108 81z"/>
<path class="cls-2" d="M954 1079 c-3 -6 0 -18 9 -26 18 -18 37 -9 37 18 0 21 -34 27 -46 8z"/>
<path class="cls-2" d="M542 990 c-38 -36 -42 -132 -6 -172 23 -24 75 -32 118 -18 24 8 33
16 29 26 -4 11 -15 13 -48 8 -36 -5 -47 -2 -64 15 -12 12 -19 26 -16 31 4 6
35 10 71 10 56 0 64 2 64 19 0 32 -22 81 -40 91 -31 17 -85 12 -108 -10z m98
-39 c15 -30 14 -31 -40 -31 -54 0 -55 1 -40 31 7 12 21 19 40 19 19 0 33 -7
40 -19z"/>
<path class="cls-2" d="M748 1003 c-16 -4 -18 -20 -18 -159 0 -147 1 -154 20 -154 17 0 20 7
20 50 0 49 1 50 29 50 76 0 117 49 108 129 -7 60 -41 91 -100 90 -23 -1 -50
-3 -59 -6z m113 -54 c14 -27 6 -99 -13 -111 -7 -4 -26 -7 -43 -6 -30 3 -30 3
-33 71 l-3 67 40 0 c31 0 43 -5 52 -21z"/>
<path class="cls-2" d="M960 905 c0 -98 1 -105 20 -105 19 0 20 7 20 105 0 98 -1 105 -20
105 -19 0 -20 -7 -20 -105z"/>
<path class="cls-2" d="M1075 985 c-20 -19 -25 -34 -25 -74 0 -70 16 -99 60 -112 45 -14 93
-1 98 25 3 15 -2 17 -41 11 -57 -9 -77 9 -77 69 0 55 17 70 71 63 30 -4 42 -2
46 10 8 21 -15 33 -65 33 -32 0 -49 -6 -67 -25z"/>
<path class="cls-2" d="M1283 995 c-31 -22 -47 -85 -33 -134 12 -47 27 -60 74 -68 30 -5 40
-1 66 25 26 26 30 38 30 85 0 44 -5 59 -25 81 -28 30 -78 35 -112 11z m87 -44
c15 -29 12 -87 -6 -105 -46 -47 -94 12 -73 89 9 30 14 35 39 35 19 0 33 -7 40
-19z"/>
<path class="cls-2" d="M1478 999 c-15 -8 -18 -25 -18 -104 0 -88 2 -95 20 -95 17 0 19 8 22
83 l3 82 38 3 c29 3 37 7 37 23 0 16 -7 19 -42 19 -24 0 -51 -5 -60 -11z"/>
<path class="cls-2"  d="M1635 985 c-33 -32 -36 -119 -5 -158 34 -43 140 -45 148 -3 3 15 -2
17 -43 11 -36 -6 -50 -4 -65 10 -37 33 -25 45 43 45 35 0 66 2 69 6 11 11 -12
80 -33 97 -31 25 -85 22 -114 -8z m99 -31 c11 -29 6 -34 -39 -34 -46 0 -58 13
-33 38 17 17 65 15 72 -4z"/>
</g>
</svg>
